<svg width="32" height="32" viewBox="0 0 32 32" fill="none" xmlns="http://www.w3.org/2000/svg">
<path fill-rule="evenodd" clip-rule="evenodd" d="M0 16C0 7.16347 7.16347 0 16 0C24.8365 0 32 7.16347 32 16C32 24.8365 24.8365 32 16 32C7.16347 32 0 24.8365 0 16ZM15.5208 13.005L15.5544 13.5587L14.9948 13.4909C12.9579 13.231 11.1785 12.3497 9.66753 10.8695L8.92893 10.1351L8.73867 10.6775C8.33573 11.8864 8.59313 13.1632 9.43253 14.0219C9.8802 14.4964 9.77947 14.5642 9.00727 14.2817C8.73867 14.1913 8.5036 14.1236 8.48127 14.1575C8.40293 14.2365 8.67147 15.2647 8.88413 15.6715C9.17513 16.2364 9.76827 16.7901 10.4174 17.1177L10.9658 17.3776L10.3167 17.3889C9.68993 17.3889 9.66753 17.4002 9.73473 17.6375C9.95853 18.3719 10.8427 19.1515 11.8275 19.4905L12.5215 19.7277L11.9171 20.0893C11.0217 20.609 9.96973 20.9028 8.91773 20.9254C8.41407 20.9367 8 20.9819 8 21.0158C8 21.1287 9.3654 21.7615 10.16 22.0101C12.5438 22.7445 15.3753 22.4281 17.5017 21.1739C19.0126 20.2813 20.5235 18.5075 21.2285 16.7901C21.6091 15.8749 21.9896 14.2027 21.9896 13.4005C21.9896 12.8807 22.0231 12.8129 22.6499 12.1915C23.0192 11.8299 23.3661 11.4345 23.4333 11.3215C23.5452 11.1068 23.5341 11.1068 22.9633 11.2989C22.012 11.6379 21.8777 11.5927 22.3477 11.0842C22.6947 10.7227 23.1087 10.0673 23.1087 9.87527C23.1087 9.84133 22.9409 9.89787 22.7506 9.99953C22.5492 10.1125 22.1015 10.282 21.7657 10.3837L21.1614 10.5758L20.613 10.2029C20.3109 9.99953 19.8855 9.7736 19.6617 9.7058C19.0909 9.5476 18.218 9.5702 17.7032 9.751C16.3042 10.2594 15.4201 11.5701 15.5208 13.005Z" fill="#99B6C5"/>
</svg>
