<svg width="32" height="32" viewBox="0 0 32 32" fill="none" xmlns="http://www.w3.org/2000/svg">
<path fill-rule="evenodd" clip-rule="evenodd" d="M0 16C0 7.16347 7.16347 0 16 0C24.8365 0 32 7.16347 32 16C32 24.8365 24.8365 32 16 32C7.16347 32 0 24.8365 0 16ZM11.307 13.2519H7.68107V24.1464H11.307V13.2519ZM11.5459 9.8818C11.5223 8.8136 10.7585 8 9.518 8C8.2776 8 7.46667 8.8136 7.46667 9.8818C7.46667 10.9279 8.25367 11.7649 9.47093 11.7649H9.49413C10.7585 11.7649 11.5459 10.9279 11.5459 9.8818ZM24.3836 17.8998C24.3836 14.5535 22.5948 12.9961 20.2087 12.9961C18.2836 12.9961 17.4217 14.0535 16.9405 14.7953V13.2522H13.3141C13.3619 14.2745 13.3141 24.1467 13.3141 24.1467H16.9405V18.0623C16.9405 17.7367 16.964 17.4119 17.0599 17.1788C17.3219 16.5283 17.9186 15.8548 18.9203 15.8548C20.2329 15.8548 20.7577 16.8538 20.7577 18.3178V24.1464H24.3835L24.3836 17.8998Z" fill="#99B6C5"/>
</svg>
